<svg height="48" viewBox="0 0 46 46" width="48" xmlns="http://www.w3.org/2000/svg"><path d="M1 23a22 22 0 1 0 44 0 22 22 0 1 0-44 0z" stroke="#2196F3" stroke-width="2" fill="none"/><path fill="#BBDEFB" d="M15 18a8 8 0 1 1 16 0 8 8 0 1 1-16 0"/><path fill="#2196F3" d="M32.97 23.86c-.59-.66-5.43-3.57-6.46-3.77-1.03-.2-7.98-.91-8.46 0-.47.91.72 1.57 1.17 1.83.44.26 3.08.44 4.82 1.4 1.74.95 1.87 1.57 1.67 2.26-.2.69-1.29 1.82-2.48 1.82-1.18 0-6.27-1.86-6.82-2.25-.54-.4-1.77-2.36-2.11-3.23-.35-.87-.86-3.65-3.26-3.91-2.4-.26.04 4.38.47 5.31.42.92 1.46 4.26 2.18 5.09.72.83 7.18 5 9 5 1.82 0 9.53-.5 10.27-1.17l.01-8.38zM35 24h1a1 1 0 0 1 1 1v7a1 1 0 0 1-1 1h-1a1 1 0 0 1-1-1v-7a1 1 0 0 1 1-1z"/></svg>
