<svg viewBox="0 0 19 20" xmlns="http://www.w3.org/2000/svg" width="16" height="16"><path fill="#2196F3" d="M16.759 10.98c.039-.32.068-.64.068-.98 0-.34-.029-.66-.068-.98l2.06-1.65a.513.513 0 0 0 .118-.64l-1.954-3.46c-.117-.22-.381-.3-.595-.22l-2.432 1a7.098 7.098 0 0 0-1.651-.98L11.934.42a.48.48 0 0 0-.479-.42H7.549a.481.481 0 0 0-.479.42l-.371 2.65c-.596.25-1.143.59-1.65.98l-2.432-1a.471.471 0 0 0-.596.22L.068 6.73a.5.5 0 0 0 .117.64l2.061 1.65a8.13 8.13 0 0 0-.069.98c0 .33.03.66.069.98L.185 12.63a.512.512 0 0 0-.117.64l1.953 3.46c.117.22.381.3.596.22l2.432-1c.507.4 1.054.73 1.65.98l.371 2.65c.03.24.235.42.479.42h3.906a.48.48 0 0 0 .479-.42l.371-2.65a7.464 7.464 0 0 0 1.651-.98l2.432 1a.47.47 0 0 0 .595-.22l1.954-3.46a.513.513 0 0 0-.118-.64l-2.06-1.65zM9.5 14C7.57 14 6 12.43 6 10.5S7.57 7 9.5 7 13 8.57 13 10.5 11.43 14 9.5 14z"/></svg>
