<svg height="200" width="200" viewBox="0 0 400 400" xmlns="http://www.w3.org/2000/svg"><path fill="#fff" d="M190.8 111.7c-11.9 3-20.3 9.7-25.5 20.3l-2.5 5.2v79.2l2.5 5.2c14.4 29.7 55.7 26.3 65-5.3 2.6-8.7 2.6-69.5 0-78.7-4.7-17.2-24-29.8-39.5-25.9m15.7 8.4c8.9 3.2 15.7 11.3 17.5 20.7 1.4 7.2 1 68.4-.4 73.9-6.6 25.2-40.5 27.7-52.1 3.9l-2.3-4.6v-74.4l2.3-4.4c7.5-14.3 21.1-20.2 35-15.1m-64.1 77c0 18.5.5 22.9 3.7 30.9 7.4 18.4 28.2 33.1 47.7 33.6.3 0 .6 5.8.6 12.8v12.8h-15.5c-16.2 0-18.1.4-18.1 3.6 0 3.4 2 3.6 35.7 3.6 33.9 0 36.3-.2 36.3-3.4 0-3.6-1-3.8-17-3.8h-15v-25.5l3-.5c1.6-.3 4.1-.7 5.4-.9 10.2-1.8 24-10.4 31-19.4 9.2-11.7 11.8-21.3 11.8-44.3V180h-7.2v16c0 17.8-1.1 25.4-4.6 32.4-17.7 35-69.2 34.7-86.4-.6-4.2-8.6-5-13.4-5-32.4V180h-6.4v17.1" stroke="#00000000"/><path fill="#1976d2" d="M179.3 63.2c-114.6 17.9-158 160.1-72.8 238.7 76.8 70.7 202.8 33 227.8-68.3 23.6-95.7-58.1-185.5-155-170.4m28.1 48.8c13.2 4.4 22.5 15 24.6 28 1 6.8 1 66.8 0 73.6-5.5 34.9-53.9 40.3-68.1 7.6l-2.7-6.4v-76l2.6-6c7.5-17.4 26.6-26.5 43.6-20.8m-18.6 8.8c-17.2 6.3-18.6 10.9-18.3 58.4l.3 35.6 2.3 4.4c10.8 20.8 39.9 19.5 48.7-2.3 2.8-7.1 2.8-73.2 0-80.3-5.4-13.3-20.4-20.5-33-15.8m63.8 74.8c.3 20.2-.7 26.6-5.3 36-8 16.1-24 27.8-41.3 30.4l-3.6.6v23.8h14.5c17.4 0 20.3 1.3 16.3 7l-1.3 1.8h-34.7c-37.7 0-37.2.1-37.2-4.4 0-4.1 1.3-4.4 17.7-4.4h15.1v-23.8l-3.9-.4c-20.3-2.4-38.3-17.6-45.4-38.2-2.3-6.7-2.3-7-2.3-25.6v-18.8h8.8l.4 19.6c.4 19.1.5 19.7 2.6 24.7 15.4 36.3 64.8 40.1 84.6 6.6 5.2-8.8 6.4-15.5 6.4-34.7 0-18.3-.2-17.6 4.8-17.2l3.6.2.2 16.8" stroke="#00000000"/><path fill="#569add" d="M184.2 31.8c.8.2 2 .2 2.8 0 .8-.3.1-.4-1.4-.4s-2.2.1-1.4.4m-32.6 5.8c-1 .4-1.2.7-.4.7.7 0 1.9-.3 2.8-.7 1-.4 1.2-.7.4-.7-.7 0-1.9.3-2.8.7m94.4 0c.9.4 2.1.7 2.8.7.8 0 .6-.3-.4-.7-.9-.4-2.1-.7-2.8-.7-.8 0-.6.3.4.7m-114.8 7.6c-1.1.6-1.6 1.1-1.2 1.1.4 0 1.7-.5 2.8-1.1 1.1-.6 1.6-1.1 1.2-1.1-.4 0-1.7.5-2.8 1.1m136 0c1.1.6 2.4 1.1 2.8 1.1.4 0-.1-.5-1.2-1.1-1.1-.6-2.4-1.1-2.8-1.1-.4 0 .1.5 1.2 1.1M90.6 71l-3.9 3.8 3.6-3.1c5.2-4.4 5.3-4.5 4.7-4.5-.3 0-2.3 1.7-4.4 3.8m219 .6c1.5 1.5 2.9 2.8 3.1 2.8.2 0-.8-1.3-2.3-2.8-1.5-1.5-2.9-2.8-3.1-2.8-.2 0 .8 1.3 2.3 2.8m4 3c0 .1 2.8 2.9 6.2 6.2l6.2 6-6-6.2c-5.5-5.8-6.4-6.6-6.4-6M80 80.6L74.8 86l5.4-5.2c5-4.8 5.8-5.6 5.2-5.6-.1 0-2.6 2.4-5.4 5.4M72.3 89L70 91.6l2.6-2.3c1.4-1.3 2.6-2.5 2.6-2.6 0-.7-.7-.1-2.9 2.3m254.1-.7c0 .1 1.2 1.3 2.6 2.5l2.6 2.4-2.3-2.6c-2.2-2.4-2.9-3-2.9-2.3m-134.8 22.6c3.7.6 13.8.7 12.9.1-.5-.3-4-.5-7.7-.5-3.7.1-6.1.2-5.2.4m-11 3.2c-3.1 1.6-2.7 2.2.4.6 3-1.5 3.5-1.9 2.5-1.9-.4 0-1.7.6-2.9 1.3m29.1-1c.8.7 5.5 2.9 5.5 2.5 0-.4-4.4-2.8-5.3-2.8-.3 0-.4.1-.2.3m-36.7 6.7l-3.9 3.8 3.6-3.1c5.2-4.4 5.3-4.5 4.7-4.5-.3 0-2.3 1.7-4.4 3.8m46-1.1c1.8 1.7 4.4 4.3 5.8 5.9 1.3 1.6 2.4 2.7 2.4 2.3 0-.9-8.1-9.3-10-10.3-.9-.4-.1.5 1.8 2.1m-33.2 2.5c-1.4.6-2.6 1.3-2.6 1.5 0 .4 5.7-1.7 6.3-2.4.7-.6-1.2-.2-3.7.9m21.4.4c1.5.8 3.2 1.5 3.6 1.5.4 0-.5-.7-2-1.5s-3.2-1.5-3.6-1.5c-.4 0 .5.7 2 1.5m-29.2 5.1c-3.1 3.2-6.7 8.5-5.6 8.5.2 0 .9-1.1 1.7-2.5.7-1.4 2.9-4.1 4.8-6 2-1.9 3.4-3.5 3.2-3.5-.3 0-2.1 1.6-4.1 3.5m38 .9c1.9 2.2 3.6 4.2 3.8 4.4.2.2 0-.3-.4-1.2-.5-.9-2.2-2.9-3.9-4.4-2.9-2.7-2.9-2.6.5 1.2m-48.6-1.8c-1.1 1.4-2.7 4.6-2.3 4.6.2 0 1.1-1.3 2-2.8 1.6-2.8 1.8-3.7.3-1.8m61.2 5c.7 1.5 1.4 2.6 1.6 2.5.4-.4-2.1-5.3-2.6-5.3-.2 0 .2 1.3 1 2.8m-183.7.8c-1.3 3-1.1 3.6.4.9.7-1.2 1.1-2.4.9-2.6-.2-.2-.8.6-1.3 1.7m176.9 5.8c1 2.7 1.9 4.8 2 4.6.5-.5-1.4-6.4-2.5-8-.8-1-.6.2.5 3.4m-59.3-1.3c-.5 1.4-.9 3.5-.8 4.6.1 1.7.2 1.6.7-.7.3-1.5.8-3.6 1.1-4.6.3-1 .4-1.8.2-1.8s-.7 1.1-1.2 2.5m194.8 2.3c.3 1.1.8 2.5 1.2 3.2.5.8.6.6.2-.8-.3-1.1-.8-2.5-1.2-3.2-.5-.8-.6-.6-.2.8M170 176.8c0 19.1.1 27 .2 17.4.1-9.6.1-25.2 0-34.8-.1-9.6-.2-1.7-.2 17.4m-8.8 0c0 18.7.1 26.3.2 17 .1-9.4.1-24.7 0-34-.1-9.4-.2-1.7-.2 17m71.2 0c0 18.7.1 26.3.2 17 .1-9.4.1-24.7 0-34-.1-9.4-.2-1.7-.2 17M365.3 166c.3 1.8.6 3.4.8 3.5.6.7.2-3.6-.5-5.1-.5-1.1-.6-.6-.3 1.6m-332 3.7c-.3 1.8-.4 3.5-.2 3.7.2.2.6-1.2.9-3 .3-1.8.4-3.5.2-3.7-.2-.2-.6 1.1-.9 3m211.2 9.3c-.2.3 1.4.5 3.6.3l3.9-.3.2 17.5.2 17.5v-35.2l-3.7-.2c-2.1-.2-3.9 0-4.2.4m-103.3 1.2c-.3.6-.3 8.4-.2 17.4l.2 16.4.2-17 .2-17h8l.2 16.8.2 16.8v-34l-4.2-.2c-3-.2-4.3 0-4.6.8m227 4.6c0 1.5.2 2.2.4 1.4.2-.8.2-2 0-2.8-.2-.8-.4-.1-.4 1.4m.8 15.2c0 2 .2 2.8.4 1.8.2-1 .2-2.6 0-3.6s-.4-.2-.4 1.8m-207.3 13.3c0 1.3.3 3 .7 3.9.5 1.1.6.4.3-2-.6-4.2-1.1-5.2-1-1.9m60.1 2.9c-1.1 3.2-1.3 4.4-.5 3.4 1.1-1.6 3-7.5 2.5-8-.1-.2-1 1.9-2 4.6m146.4-1c0 1.5.2 2.2.4 1.4.2-.8.2-2 0-2.8-.2-.8-.4-.1-.4 1.4m-125.8 3c-.5 2.5-1.2 5.1-1.4 5.8-.3 1.1-.2 1.1.4 0 1-1.5 2.9-9.6 2.4-10-.2-.2-.8 1.7-1.4 4.2M141.7 216c-.1 2.1 1.4 8.4 1.9 7.9.1-.2-.3-2.5-.8-5.1-.6-2.6-1.1-3.9-1.1-2.8m31.5 4.8c.7 1.3 1.4 2.4 1.6 2.4.3 0-.1-1.1-.8-2.4-.7-1.3-1.4-2.4-1.6-2.4-.3 0 .1 1.1.8 2.4m55.4 2c-.8 1.5-1.2 2.8-1 2.8.5 0 3-4.9 2.6-5.3-.2-.1-.9 1-1.6 2.5m-12.5 3.1l-3.6 4.1 3.9-3.8c2.2-2 3.8-3.9 3.6-4.1-.2-.2-2 1.5-3.9 3.8m-63.7-1.7c.3 1 .9 2.2 1.3 2.6.4.4.3-.4-.2-1.8-1-2.9-1.9-3.6-1.1-.8m13.6 1.3c.6 1.3 1.6 2.6 2 2.9.4.3 0-.8-.9-2.4-2-3.4-2.8-3.7-1.1-.5m82.9 1c-.5 1.4-.8 2.7-.6 2.9.2.1.7-.9 1.2-2.3s.8-2.7.6-2.9c-.2-.1-.7.9-1.2 2.3M33 227.6c0 .9.3 2.7.6 4 .5 2.2.6 2.2.6.4 0-1.1-.2-2.9-.6-4-.5-1.6-.6-1.7-.6-.4m148.2 1.9c.6 1 5.2 3.6 5.6 3.1.2-.1-1.2-1.1-2.9-2.1-1.8-1-3-1.5-2.7-1m-10 2.9c1.5 1.5 2.9 2.8 3.1 2.8.2 0-.8-1.3-2.3-2.8-1.5-1.5-2.9-2.8-3.1-2.8-.2 0 .8 1.3 2.3 2.8m30 1.3c-1.8.3-5 .5-7.2.3-3.5-.3-3.7-.3-1.6.5 2.6.8 9.4.4 12.5-.8 2.3-1 .6-1-3.7 0m18 .9c-1.1 1-2.9 2.4-4 3.2-1.3.9-1.4 1.2-.4.7 2.1-1 8-5.7 7.1-5.7-.4 0-1.6.8-2.7 1.8m14.9 1.2c-1.8 2.2-1.9 2.6-.6 1.4 1.6-1.4 3.7-4.4 3.1-4.4-.1 0-1.3 1.3-2.5 3m-84.6 1.7c.5.8 1.4 1.9 2.2 2.6 1 .8.9.3-.4-1.5-2-2.8-3-3.5-1.8-1.1m13.3 2.5c2.2 2.2 4.1 4 4.3 4 .3 0-1.3-1.8-3.5-4s-4.1-4-4.3-4c-.3 0 1.3 1.8 3.5 4m13.5-3.3c.3.5 1.3 1.3 2.2 1.8 1.2.6 1.5.6 1.2 0-.3-.5-1.3-1.3-2.2-1.8-1.2-.6-1.5-.6-1.2 0m7.3 4.1c1.8.9 3.9 1.6 4.8 1.6.9 0-.4-.7-2.8-1.6-5.5-1.9-6.1-1.9-2 0m45 1c-2.5 2.5-2.5 2.5-.2.6 1.3-1.1 2.7-2.3 3.2-2.6.4-.3.5-.6.1-.6-.3 0-1.7 1.2-3.1 2.6m-21.4-.6c-1.5.6-2.3 1.1-1.6 1.1.7 0 2.3-.5 3.6-1.1 3.1-1.4 1.7-1.4-2 0m-50.4 4.7c2.4 2.5 5.1 5 6 5.5.9.4 1.4.7 1.2.5-.2-.2-2.9-2.7-6-5.5l-5.6-5.2 4.4 4.7m-119.9-.3c0 .7.3 1.9.7 2.8.4 1 .7 1.2.7.4 0-.7-.3-1.9-.7-2.8-.4-1-.7-1.2-.7-.4m185.4.8c-1.8 1.6-1.8 1.6-.1.8.9-.4 1.9-1.2 2.2-1.6.8-1.3-.1-.9-2.1.8m-8.3 4.1c-1.8.8-2.3 1.3-1.2 1 2.3-.6 6.4-2.6 5.2-2.6-.4 0-2.2.7-4 1.6m-34.8.3c1.1.6 2.4 1.1 2.8 1.1.4 0-.1-.5-1.2-1.1-1.1-.6-2.4-1.1-2.8-1.1-.4 0 .1.5 1.2 1.1m48 2.4c-1.5 1.1-2.4 2-2 2 .4 0 1.9-.9 3.2-2 3.1-2.5 2.4-2.5-1.2 0m-31.8 1c1.2.2 3 .2 4 0s0-.4-2.2-.4-3 .2-1.8.4m25.4 2.6c-1.5.8-2.5 1.5-2.2 1.6.9 0 5.4-2.3 5.4-2.8s0-.5-3.2 1.2m-49.6-.4c0 .7 5.7 3 6.2 2.4.3-.2.3-.4 0-.4-.2 0-1.7-.5-3.3-1.2-1.6-.7-2.9-1-2.9-.8m186.5 3.7c-.5 1.4-.8 2.7-.6 2.9.2.1.7-.9 1.2-2.3s.8-2.7.6-2.9c-.2-.1-.7.9-1.2 2.3m-175.3.7c.7.4 3.3 1 5.8 1.3l4.6.5v23.8h-15c-8.2 0-15.4.3-15.9.6-1 .6 29 .4 30.7-.2.8-.3 1-3.2.8-12.6l-.2-12.2-4-.6c-2.2-.3-4.9-.7-6-1-1.5-.3-1.7-.3-.8.4m24 .3l-4.4.9v24.8l14.8.2c17 .3 20.2 1.6 15.2 6.6-.9.9-1.3 1.6-.8 1.6 1 0 3.2-3.3 3.2-4.9 0-3.4-2.2-3.9-17.5-3.9h-14.5v-23.8l3.7-.6c3.8-.5 8.1-1.9 5.9-1.9-.7.1-3.2.5-5.6 1M44.1 266c0 .4.5 1.7 1.1 2.8.6 1.1 1.1 1.6 1.1 1.2 0-.4-.5-1.7-1.1-2.8-.6-1.1-1.1-1.6-1.1-1.2m27.1 44c1.5 1.5 2.9 2.8 3.1 2.8.2 0-.8-1.3-2.3-2.8-1.5-1.5-2.9-2.8-3.1-2.8-.2 0 .8 1.3 2.3 2.8m248.4 9.4l-6.4 6.6 6.6-6.4c3.6-3.5 6.6-6.5 6.6-6.6 0-.6-.9.3-6.8 6.4m-239.6.2c2.8 2.9 5.3 5.2 5.6 5.2.2 0-2-2.3-4.8-5.2-2.8-2.9-5.3-5.2-5.6-5.2-.2 0 2 2.3 4.8 5.2m9.6 8.8c1.5 1.5 2.9 2.8 3.1 2.8.2 0-.8-1.3-2.3-2.8-1.5-1.5-2.9-2.8-3.1-2.8-.2 0 .8 1.3 2.3 2.8m93.8 40.2c.8.2 2 .2 2.8 0 .8-.2.1-.4-1.4-.4s-2.2.2-1.4.4m30.4 0c.8.2 2 .2 2.8 0 .8-.2.1-.4-1.4-.4s-2.2.2-1.4.4m-15.6.8c1 .2 2.6.2 3.6 0s.2-.4-1.8-.4-2.8.2-1.8.4" stroke="#00000000"/><path fill="#2196f3" d="M182 32C50.1 46.5-14.2 200.6 67.9 305.2c46.4 59 132.9 80.5 199.7 49.7 32-14.8 56-35.3 74.2-63.3 4.5-6.9 14.2-24.9 14.2-26.4 0-.3.9-2.7 1.9-5.5C403.1 144.2 306 18.4 182 32m42.9 31.9c110.4 19.6 151.9 157.6 71 235.8C220 372.9 91.8 336.5 66 234.5 41.3 136.6 125.5 46.2 224.9 63.9" stroke="#00000000"/><path fill="#bbdefb" d="M177.6.5c-12 1.5-21.2 2.9-22.3 3.5-.7.3-4.2 1.3-7.7 2-3.5.8-6.8 1.7-7.2 2-.4.3-3.2 1.2-6.2 2-3 .7-5.4 1.6-5.4 1.9 0 .3-1.4 1-3 1.4-3.1.9-14.4 5.8-15.8 6.9-.4.3-3.3 1.9-6.4 3.5-6.2 3.1-13 7.3-14.7 8.9-.5.5-1.3 1-1.6 1-.6 0-5.4 3.5-8 5.8-.7.5-1.8 1.4-2.6 1.8-5.3 3-27.7 25.2-34.4 34L39 79.6c-4.5 5.8-5.4 7.1-5.4 7.7 0 .3-.5 1.1-1.1 1.6-1.4 1.5-7.3 11.4-9.9 16.7-1.2 2.4-2.4 4.5-2.8 4.7-.3.1-.6.6-.6 1 0 .5-1.3 3.5-2.8 6.8-1.6 3.3-3.1 7-3.3 8.3-.3 1.3-.8 2.4-1.1 2.4-.3 0-1.3 2.4-2 5.4-.8 3-1.7 5.8-2 6.2-.3.4-1.2 3.7-2 7.2-.7 3.5-1.7 7-2 7.7-4.8 9.4-4.8 86.9.1 88.6.4.1.7 1.1.7 2.3 0 2.2 2.1 11 3.2 13.4.4.9 1.3 3.9 2.1 6.6.7 2.8 1.6 5 1.9 5 .3 0 .8 1.1 1.1 2.5.3 1.4 1.8 5.2 3.3 8.4 1.5 3.2 2.8 6.1 2.8 6.6 0 .4.3.9.6 1 .4.2 1.6 2.3 2.8 4.7 2.8 5.7 8.7 15.5 9.5 15.9.4.1.7.6.7 1.1 0 .9 3 5.1 9.1 12.9 5.6 7 5.7 7.1 16.2 17.6 11.4 11.4 12.8 12.7 20.7 18.6.9.6 3 2.2 4.7 3.5 1.7 1.3 3.4 2.4 3.8 2.4.3 0 1.1.5 1.6 1.1 1.5 1.4 11.4 7.3 16.7 9.9 2.4 1.2 4.5 2.4 4.7 2.8.1.3.6.6 1 .6.5 0 3.4 1.3 6.6 2.8 3.2 1.5 7 3 8.4 3.3 1.4.3 2.5.8 2.5 1.1 0 .3 2.4 1.3 5.4 2 3 .8 5.8 1.7 6.2 2 .4.3 3.7 1.2 7.2 2 3.5.7 7 1.7 7.7 2 9.4 4.8 80 4.8 89.4 0 .7-.3 4.2-1.3 7.7-2 3.5-.8 6.8-1.7 7.2-2 .4-.3 3.2-1.2 6.2-2 3-.7 5.4-1.7 5.4-2 0-.3 1.1-.8 2.5-1.1 1.4-.3 5.2-1.8 8.4-3.3 3.2-1.5 6.1-2.8 6.6-2.8.4 0 .9-.3 1-.6.2-.4 2.3-1.6 4.7-2.8 5.7-2.8 15.5-8.7 15.9-9.5.1-.4.7-.7 1.2-.7s2.5-1.3 4.5-2.8c2-1.5 4.3-3.3 5.2-3.9 14.7-11 30.1-26.8 43.4-44.8 1.4-1.9 2.6-3.8 2.6-4.3s.3-1 .7-1.1c.8-.4 6.7-10.2 9.5-15.9 1.2-2.4 2.4-4.5 2.8-4.7.3-.1.6-.6.6-1 0-.5 1.3-3.4 2.8-6.6 1.5-3.2 3-7 3.3-8.4.3-1.4.8-2.5 1.1-2.5.3 0 1.3-2.4 2-5.4.8-3 1.7-5.8 2-6.2.3-.4 1.2-3.7 2-7.2.7-3.5 1.7-7 2-7.7 4.8-9.4 4.8-86.9 0-88.6-.5-.1-.8-1.1-.8-2.3 0-2.2-2.1-11-3.2-13.4-.4-.9-1.3-3.8-2.1-6.6-.7-2.7-1.6-5-1.9-5-.3 0-.8-1.1-1.1-2.5-.3-1.4-1.8-5.2-3.3-8.4-1.5-3.2-2.8-6.1-2.8-6.6 0-.4-.3-.9-.6-1-.4-.2-1.6-2.3-2.8-4.7-2.4-4.9-8.5-15.4-9.4-16-.3-.2-1.2-1.5-1.9-2.8-2.1-3.7-8.2-11.9-12.9-17.2-2.3-2.5-20.3-20.5-22.4-22.4-7.1-6.1-18.3-14.4-19.4-14.4-.5 0-1-.3-1.1-.6-.4-.9-7.4-5.2-13.9-8.5-3.1-1.6-6-3.2-6.4-3.5-.4-.4-2.1-1.2-3.6-1.8-1.5-.6-3.9-1.7-5.2-2.4-1.3-.8-4.1-1.9-6.2-2.5-2.1-.6-3.8-1.3-3.8-1.6 0-.3-2.4-1.2-5.4-1.9-3-.8-5.8-1.7-6.2-2-.4-.3-3.7-1.2-7.2-2s-7.1-1.7-8-2.1c-5.7-2.5-53.8-5-66.8-3.4m45.6 31.9c79.3 10.7 140.5 76.4 145.5 156.3 6.5 103.1-76.9 186.5-180 180-97.5-6.1-169.5-94.5-156.3-191.9 12.4-92.1 98.1-157 190.8-144.4m-39.6 81.2c-1.8.8-2.8 1.5-2.4 1.5 1.1 0 7.4-3 6.4-3-.4 0-2.2.6-4 1.5m22.8-.9c.7.4 2.1.9 3.2 1.2 1.4.4 1.6.4.8-.2-.7-.4-2.1-.9-3.2-1.2-1.4-.4-1.6-.3-.8.2m13.7 8.1c2.8 2.9 5.8 6.1 6.6 7.2 1.3 1.9 1.3 1.9.4.1-1.1-2.5-6.7-8.5-9.8-10.7-1.4-1-.1.6 2.8 3.4m-48.2.6c-2.7 2.9-5.9 7.1-4.2 5.4 1.9-1.8 7.7-8.4 7.4-8.4-.2 0-1.6 1.4-3.2 3m20.1-2.5c2.7.5 12.7.7 11.8.1-.6-.3-3.7-.5-7-.5s-5.5.2-4.8.4m16.1 2.1c.2.2 1.4.9 2.7 1.7l2.4 1.4-1.9-1.7c-1-.9-2.3-1.6-2.7-1.6-.5 0-.7.1-.5.2m7.8 5.5c1.5 1.6 3.5 4.3 4.6 6 1 1.7 1.9 2.8 1.9 2.5 0-1.2-3.9-6.7-6.5-9l-2.7-2.4 2.7 2.9m-50.8 4.5c-.3.8-.7 1.8-.9 2.2-.2.4.2.1.9-.8 1.3-1.5 1.7-2.8.9-2.8-.3 0-.7.6-.9 1.4m63.8 1c0 .2.7 2.7 1.5 5.6 1.1 3.5 1.5 4.2 1.1 2-.4-2.7-2.5-8.8-2.6-7.6m-58.6 5.3c-.4 1.2-.7 2.9-.5 3.8.1 1 .6.2 1.1-2.1 1-4.2.7-5-.6-1.7m-8.3 39.5c0 19.1.1 27 .2 17.4.1-9.6.1-25.2 0-34.8-.1-9.6-.2-1.7-.2 17.4m7.2 0c0 18.7.1 26.3.2 17 .1-9.4.1-24.7 0-34-.1-9.4-.2-1.7-.2 17m55.2.4c0 18.9.1 26.5.2 16.9.1-9.6.1-25 0-34.4-.1-9.3-.2-1.4-.2 17.5m20 3c-.3.6-.3 8.4-.2 17.4l.2 16.4.2-17 .2-16.9 3.8-.3 3.8-.3-3.8-.2c-2.5 0-4 .3-4.2.9m-102.5 17c0 9.7.2 13.5.3 8.6.1-5 .1-12.9 0-17.6-.1-4.8-.3-.7-.3 9m7.2-.8c0 9.2.2 12.9.3 8.2.1-4.8.1-12.4 0-16.8-.1-4.5-.3-.6-.3 8.6m20.9 17.5c.2 1.8.7 3.5 1.2 4 .6.6.6.2.1-1.5-.5-1.3-1-3.1-1.2-4-.3-.9-.3-.2-.1 1.5m60.2 2.7c-.7 2.5-1.2 4.7-1 4.9.2.1.9-1.8 1.6-4.3.8-2.5 1.2-4.7 1-4.9-.2-.1-.9 1.8-1.6 4.3m-80.5-1.4c-.1 2.1 1.4 8.4 1.9 7.9.1-.2-.3-2.5-.8-5.1-.6-2.6-1.1-3.9-1.1-2.8m100.1 6.1c-.5 2.1-.7 4-.6 4.2.5.4 2.1-6.3 1.8-7.3-.1-.4-.7.9-1.2 3.1m-9.3 4.7c-1.8 4-1.6 4.6.4.9.9-1.7 1.5-3.2 1.3-3.4-.2-.1-.9 1-1.7 2.5m-96-.4c.3 1.1 1 2.9 1.6 4l1.2 2-.6-2c-.3-1.1-1-2.9-1.6-4l-1.2-2 .6 2m70.3 2.2c-2.2 2-3.3 3.3-2.4 2.8 1.5-.8 7.5-6.6 6.8-6.6-.2 0-2.2 1.7-4.4 3.8m11.5-2c-.5 1-2.7 3.8-5 6.1-2.5 2.7-3.1 3.6-1.5 2.3 3.9-3.1 9.3-10.2 7.9-10.2-.3 0-.9.8-1.4 1.8m-49.6.9c1.3 1.5 5.7 4.8 5.7 4.2 0-.2-1.5-1.6-3.4-3-1.9-1.5-2.9-2-2.3-1.2m-22.7 2.1c.7 1.3 1.4 2.4 1.6 2.4.3 0-.1-1.1-.8-2.4-.7-1.3-1.4-2.4-1.6-2.4-.3 0 .1 1.1.8 2.4m14.7-.2c.8 1.2 2.9 3.5 4.6 5 2.1 2 1.7 1.3-1.3-2.2-4.6-5.3-5.9-6.4-3.3-2.8m77.5 3c-.8 1.5-1.2 2.8-1 2.8.5 0 3-4.9 2.6-5.3-.2-.1-.9 1-1.6 2.5m-8.4-.2c-1.5 2-2.1 3.3-1.1 2.7.9-.6 2.8-3.7 2.2-3.7-.2 0-.7.5-1.1 1m-31 1.4c-1.8.9-2.7 1.6-2.2 1.6 1.2 0 5.8-2.2 5.8-2.8 0-.5.2-.6-3.6 1.2m-21.6-.1c.4.4 1.9 1 3.2 1.4 3.1.7 2.4 0-1.2-1.2-1.5-.5-2.4-.6-2-.2m-27 2.9c.9 1.3 3.2 3.8 5.1 5.6 2.9 2.7 2.8 2.5-.9-1.6-5.7-6.4-6.1-6.8-4.2-4m20.8 2.2c1 1.1 4.2 2.5 4.2 1.7 0-.1-1.2-.9-2.6-1.6-2.2-1.1-2.4-1.2-1.6-.1m62.1 2c-2.8 3.5-4.4 6.3-1.9 3.4 2.5-3 5-6.4 4.6-6.4-.2 0-1.4 1.3-2.7 3m-88.5.7c2.2 3.1 10.8 11.2 13.2 12.3 1 .5.7.1-.6-.9-1.3-.9-5.1-4.5-8.4-7.8-3.2-3.4-5.1-5-4.2-3.6m73.8 3.6c-2 1.8-2.5 2.5-1.2 1.6 4.1-2.9 6.4-4.9 5.6-4.8-.4 0-2.4 1.4-4.4 3.2m-33.5-1.5c2.2.5 5.5.5 8 0 4-.6 3.7-.7-3.7-.7-7 0-7.5.1-4.3.7m39.9 5.9c-4.4 3.5-6.1 5.2-2.8 2.9 3.2-2.3 7.3-5.7 6.8-5.8-.2 0-2 1.3-4 2.9m-60.8-.9c0 .5 6.5 3.8 6.9 3.4.1-.2-1.3-1.1-3.3-2-2-1-3.6-1.6-3.6-1.4m11.3 5.2c.7.4 3.4.9 6 1.2l4.7.3-4-.7c-2.2-.4-4.9-.9-6-1.2-1.5-.3-1.7-.2-.7.4m26.2-.4c-.2.2-2.4.7-4.8 1.2l-4.3.7 4.2-.3c3.6-.3 8.6-1.9 6.1-2-.4 0-1 .2-1.2.4m6.1 6c-1.8.9-2.3 1.4-1.2 1.1 2.3-.6 6.4-2.6 5.2-2.6-.4-.1-2.2.6-4 1.5m-38.8-.1c.7.4 2.1.9 3.2 1.2 1.4.4 1.6.4.8-.2-.7-.4-2.1-.9-3.2-1.2-1.4-.4-1.6-.3-.8.2m16.4 16.1c0 7 .3 12.8.6 12.8s.6-5.8.6-12.8c0-7-.3-12.8-.6-12.8s-.6 5.8-.6 12.8m7.6 0c0 7 .3 12.8.6 12.8s.6-5.8.6-12.8c0-7-.3-12.8-.6-12.8s-.6 5.8-.6 12.8m-40.4 15.1c-.6 2.1.2 3.7 2.5 4.8 3.3 1.5 66.7 1.2 68.7-.3 1.5-1.1 1.4-1.2-.7-.4-1.3.5-14.8.8-34.4.8-35.3 0-36.4-.1-35.3-4.5.5-2.2-.1-2.6-.8-.4" stroke="#00000000"/></svg>