<svg xmlns="http://www.w3.org/2000/svg" width="256" height="256" viewBox='0 0 256 256'><path svg-effect="non-scaling-stroke" d="M 94 46 C 94 46, 11 45, 7 133 C 7 133, 2 210, 94 222 C 94 222, 183 222, 182 134 C 182 134, 185 47, 94 46" fill="#ffffff" stroke="black" stroke-width="3" stroke-linecap="round"/><path svg-effect="non-scaling-stroke" d="M 80 140 C 80 140, 82 144, 82 144 C 82 144, 254 34, 82 144 C 82 144, 80 140, 80 140" fill="#ffffff" stroke="black" stroke-width="3" stroke-linecap="round"/><path svg-effect="non-scaling-stroke" d="M 108 141 C 108 141, 105 145, 105 144 C 105 144, 55 107, 55 107 C 55 107, 56 104, 56 104 C 56 104, 108 141, 108 141" fill="#000000" stroke="black" stroke-width="3" stroke-linecap="round"/><path svg-effect="non-scaling-stroke" d="M 80 140 C 80 140, 158 91, 158 91 C 158 91, 160 95, 160 95 C 160 95, 83 144, 83 144 C 83 144, 80 140, 80 140" fill="#000000" stroke="black" stroke-width="3" stroke-linecap="round"/><path svg-effect="non-scaling-stroke" d="M 100 120 C 100 120, 58 197, 58 197 " fill="red" stroke="red" stroke-width="3" stroke-linecap="round"/><path svg-effect="non-scaling-stroke" d="M 94 47 C 94 47, 94 47, 94 53 C 94 53, 94 47, 94 47" fill="#000000" stroke="black" stroke-width="3" stroke-linecap="round"/><path svg-effect="non-scaling-stroke" d="M 182 134 C 182 134, 182 134, 174 135 C 174 135, 182 134, 182 134" fill="#000000" stroke="black" stroke-width="3" stroke-linecap="round"/><path svg-effect="non-scaling-stroke" d="M 94 221 C 94 221, 94 221, 94 216 C 94 216, 94 221, 94 221" fill="#000000" stroke="black" stroke-width="3" stroke-linecap="round"/><path svg-effect="non-scaling-stroke" d="M 8 134 C 8 134, 8 134, 13 134 C 13 134, 8 134, 8 134" fill="#000000" stroke="black" stroke-width="3" stroke-linecap="round"/><path svg-effect="non-scaling-stroke" d="M 50 209 C 50 209, 50 209, 54 204 C 54 204, 50 209, 50 209" fill="#000000" stroke="black" stroke-width="3" stroke-linecap="round"/><path svg-effect="non-scaling-stroke" d="M 18 177 C 18 177, 29 171, 18 177" fill="#000000" stroke="black" stroke-width="3" stroke-linecap="round"/><path svg-effect="non-scaling-stroke" d="M 19 89 C 19 89, 29 96, 19 89" fill="#000000" stroke="black" stroke-width="3" stroke-linecap="round"/><path svg-effect="non-scaling-stroke" d="M 50 58 C 50 58, 59 69, 50 58" fill="#000000" stroke="black" stroke-width="3" stroke-linecap="round"/><path svg-effect="non-scaling-stroke" d="M 138 57 C 138 57, 138 57, 136 62 C 136 62, 138 57, 138 57" fill="#000000" stroke="black" stroke-width="3" stroke-linecap="round"/><path svg-effect="non-scaling-stroke" d="M 172 89 C 172 89, 172 89, 167 93 C 167 93, 172 89, 172 89" fill="#000000" stroke="black" stroke-width="3" stroke-linecap="round"/><path svg-effect="non-scaling-stroke" d="M 165 175 C 165 175, 180 184, 165 175" fill="#000000" stroke="black" stroke-width="3" stroke-linecap="round"/><path svg-effect="non-scaling-stroke" d="M 139 210 C 139 210, 130 199, 139 210" fill="#000000" stroke="black" stroke-width="3" stroke-linecap="round"/></svg>
