<svg width="256" height="256" viewBox='0 0 256 256'  xmlns="http://www.w3.org/2000/svg"><path svg-effect="non-scaling-stroke" d="M 107 97 C 107 97, 104 73, 108 47 C 108 47, 114 42, 115 48 C 115 48, 105 65, 115 96 C 115 96, 111 109, 107 97" fill="#542928" stroke="black" stroke-width="3" stroke-linecap="round" /><path svg-effect="non-scaling-stroke" d="M 112 93 C 112 93, 106 60, 140 52 C 140 52, 181 35, 178 2 C 178 2, 188 24, 180 51 C 180 51, 164 91, 112 93" fill="#058303" stroke="black" stroke-width="3" stroke-linecap="round" /><path svg-effect="non-scaling-stroke" d="M 110 95 C 110 95, 51 85, 43 116 C 43 116, 35 160, 52 190 C 52 190, 89 254, 112 251 C 112 251, 134 254, 145 243 C 145 243, 152 237, 165 241 C 165 241, 189 251, 205 216 C 205 216, 221 192, 218 128 C 218 128, 212 98, 189 79 C 189 79, 179 69, 153 76 C 153 76, 126 82, 110 95" fill="#f20202" stroke="black" stroke-width="3" stroke-linecap="round" /></svg>