<svg height="24" 
     width="24" viewBox="0 0 46 46" xmlns="http://www.w3.org/2000/svg">
    <path fill="#00000000"
        d="M1,23a22,22 0,1 0,44 0a22,22 0,1 0,-44 0z"
        stroke="#2196F3" stroke-width="2"/>
    <path fill="#BBDEFB"
        d="M12.12,16.77C12.12,15.79 12.91,15 13.9,15L31.22,15C32.2,15 33,15.79 33,16.77L33,18.54L12.12,18.54L12.12,16.77Z"
        stroke="#00000000" stroke-width="1"/>
    <path fill="#BBDEFB"
        d="M14.12,19L31,19A2,2 0,0 1,33 21L33,30A2,2 0,0 1,31 32L14.12,32A2,2 0,0 1,12.12 30L12.12,21A2,2 0,0 1,14.12 19z"
        stroke="#00000000" stroke-width="1"/>
    <path fill="#2196F3" d="M15,13h1v4h-1z"
        stroke="#00000000" stroke-width="1"/>
    <path fill="#2196F3" d="M29,13h1v4h-1z"
        stroke="#00000000" stroke-width="1"/>
    <path fill="#2196F3" d="M16,21h3v3h-3z"
        stroke="#00000000" stroke-width="1"/>
    <path fill="#2196F3" d="M21,21h3v3h-3z"
        stroke="#00000000" stroke-width="1"/>
    <path fill="#2196F3" d="M26,21h3v3h-3z"
        stroke="#00000000" stroke-width="1"/>
    <path fill="#2196F3" d="M16,25h3v3h-3z"
        stroke="#00000000" stroke-width="1"/>
    <path fill="#2196F3" d="M21,25h3v3h-3z"
        stroke="#00000000" stroke-width="1"/>
    <path fill="#2196F3" d="M26,25h3v3h-3z"
        stroke="#00000000" stroke-width="1"/>
</svg>
