<svg height="200" width="200" viewBox="0 0 46 46" xmlns="http://www.w3.org/2000/svg"><path d="M19.85 17.83v-3.42c0-1.88 1.53-3.41 3.42-3.41h1.12c1.88 0 3.42 1.53 3.42 3.41v3.42" stroke="#2196F3" stroke-linecap="round" stroke-linejoin="round" fill="none"/><path fill="#2196F3" d="M30.2 15.95v17.42l1.36-.93V16.57z"/><path fill="#BBDEFB" d="M14 15.95h16.2V33.5H14z"/><path d="M17.15 17.83v-3.42c0-1.88 1.53-3.41 3.42-3.41h1.12c1.88 0 3.42 1.53 3.42 3.41v3.42" stroke="#2196F3" stroke-linecap="round" stroke-linejoin="round" fill="none"/><path d="M1 23a22 22 0 1 0 44 0 22 22 0 1 0-44 0z" stroke="#2196F3" stroke-width="2" fill="none"/></svg>