<svg height="24" 
     width="24" viewBox="0 0 46 46" xmlns="http://www.w3.org/2000/svg">
    <path fill="#00000000"
        d="M1,23a22,22 0,1 0,44 0a22,22 0,1 0,-44 0z"
        stroke="#2196F3" stroke-width="2"/>
    <path fill="#2196F3"
        d="M18.58,20.17C18.58,18.28 18.57,16.38 18.58,14.49C18.58,13.87 18.96,13.35 19.52,13.16C20.08,12.97 20.69,13.14 21.07,13.62C21.32,13.93 21.39,14.29 21.38,14.69C21.38,16.91 21.38,19.13 21.39,21.36C21.39,21.53 21.27,21.83 21.57,21.84C21.91,21.85 21.77,21.53 21.77,21.35C21.78,18.75 21.78,16.14 21.78,13.54C21.78,12.63 22.39,11.99 23.21,12C23.91,12.01 24.52,12.53 24.57,13.24C24.61,13.96 24.6,14.68 24.6,15.4C24.6,17.39 24.6,19.38 24.6,21.37C24.6,21.42 24.6,21.47 24.6,21.53C24.61,21.69 24.56,21.92 24.81,21.9C25.05,21.88 25,21.66 25,21.5C25.01,19.94 25.01,18.38 25.01,16.83C25.01,16.3 25,15.77 25.01,15.24C25.01,14.37 25.59,13.72 26.39,13.72C27.2,13.71 27.81,14.35 27.81,15.23C27.81,17.51 27.81,19.78 27.81,22.06C27.81,22.14 27.79,22.24 27.82,22.31C27.86,22.38 27.94,22.47 28.01,22.47C28.07,22.47 28.17,22.38 28.19,22.31C28.23,22.22 28.21,22.1 28.21,22C28.21,20.49 28.2,18.99 28.21,17.49C28.21,16.82 28.58,16.3 29.16,16.09C29.71,15.9 30.3,16.06 30.69,16.51C30.95,16.83 31.03,17.2 31.03,17.6C31.03,20.23 31.03,22.85 31.03,25.48C31.03,26.57 31.06,27.66 30.99,28.75C30.82,31.8 28.73,34.4 25.85,35.22C22.74,36.11 19.48,34.74 17.79,31.94C16.45,29.72 15.02,27.55 13.62,25.36C13.49,25.15 13.36,24.95 13.23,24.74C12.8,24.03 12.99,23.12 13.65,22.66C14.32,22.2 15.22,22.35 15.71,23.02C16.47,24.04 17.21,25.07 17.98,26.09C18.07,26.21 18.25,26.26 18.39,26.35C18.45,26.2 18.57,26.04 18.57,25.89C18.58,23.98 18.58,22.08 18.58,20.17C18.58,20.17 18.58,20.17 18.58,20.17Z"
        stroke="#00000000" stroke-width="1"/>
    <path fill="#00000000"
        d="M36.23,25.13C36.92,23.19 36.92,21.02 36.06,19"
        stroke="#BBDEFB" stroke-linecap="round"
        stroke-linejoin="round" stroke-width="1"/>
    <path fill="#00000000"
        d="M38.23,24.13C38.92,22.19 38.92,20.02 38.06,18"
        stroke="#BBDEFB" stroke-linecap="round"
        stroke-linejoin="round" stroke-width="1"/>
    <path fill="#00000000"
        d="M8.1,26.13C7.31,24.23 7.2,22.06 7.95,20"
        stroke="#BBDEFB" stroke-linecap="round"
        stroke-linejoin="round" stroke-width="1"/>
    <path fill="#00000000"
        d="M10.1,25.13C9.31,23.23 9.2,21.06 9.95,19"
        stroke="#BBDEFB" stroke-linecap="round"
        stroke-linejoin="round" stroke-width="1"/>
</svg>
