<svg height="200" width="200" viewBox="0 0 98 98" xmlns="http://www.w3.org/2000/svg"><path fill="#BBDEFB" d="M0 49a49 49 0 1 0 98 0 49 49 0 1 0-98 0z"/><path fill="#2196F3" d="M7.54 49a41.46 41.46 0 1 1 82.92 0 41.46 41.46 0 1 1-82.92 0"/><path fill="#1976D2" d="M15.08 49a33.92 33.92 0 1 1 67.85 0 33.92 33.92 0 1 1-67.85 0"/><path fill="#FFF" d="M60.85 35.03v27.81a2 2 0 0 1-2 2h-2.31a2 2 0 0 1-2-2V35.03a2 2 0 0 1 2-2h2.31a2 2 0 0 1 2 2zm-16.57 0v27.81a2 2 0 0 1-2 2h-2.3a2 2 0 0 1-2-2V35.03a2 2 0 0 1 2-2h2.3a2 2 0 0 1 2 2z"/></svg>