<svg height="24" 
     width="24" viewBox="0 0 16 16" xmlns="http://www.w3.org/2000/svg">
    <path fill-opacity="0.26" fill="#000000"
        d="M2.522,8.906C0.766,7.143 0.766,4.286 2.522,2.522C4.284,0.759 7.14,0.759 8.903,2.522C10.664,4.286 10.664,7.143 8.903,8.906C7.14,10.669 4.284,10.669 2.522,8.906L2.522,8.906ZM15.811,13.497L12.792,10.483C12.524,10.216 12.048,10.245 11.564,10.491L10.248,9.181C11.966,6.934 11.803,3.72 9.75,1.674C7.519,-0.558 3.904,-0.558 1.673,1.674C-0.558,3.906 -0.558,7.522 1.673,9.754C3.726,11.8 6.939,11.964 9.177,10.253L10.493,11.562C10.24,12.046 10.219,12.53 10.478,12.79L13.498,15.811C13.878,16.19 14.71,15.982 15.342,15.342C15.982,14.709 16.19,13.884 15.811,13.497L15.811,13.497Z"
        stroke="#00000000" stroke-width="1"/>
</svg>
