<svg height="100"
     width="100" viewBox="0 0 264 246" xmlns="http://www.w3.org/2000/svg">
    <path fill="#2196F3" d="M130.237,189.761c36.49,0 66.071,-29.72 66.071,-66.38C196.308,86.72 166.728,57 130.238,57 93.747,57 64.166,86.72 64.166,123.38c0,9.481 1.978,18.497 5.542,26.656 3.34,7.645 0,30.578 -11.709,41.03 5.804,5.814 37.521,-10.646 44.652,-7.35 8.395,3.88 17.739,6.045 27.585,6.045z"/>
    <path fill="#1976D2" d="M130.47,189.176c36.415,0 65.936,-29.588 65.936,-66.088C196.406,86.588 166.886,57 130.47,57"/>
    <path fill="#FFF" d="M100.77,112.268a30.12,30.262 0,1 0,60.24 0a30.12,30.262 0,1 0,-60.24 0z"/>
    <path fill="#2196F3" d="M113.837,112.891a16.518,16.595 0,1 0,33.036 0a16.518,16.595 0,1 0,-33.036 0z"/>
    <path fill="#FFF" d="M119.778,108.107a5.83,5.857 0,1 0,11.66 0a5.83,5.857 0,1 0,-11.66 0z"/>
    <path fill="#BBDEFB" d="M57,236a70,10 0,1 0,140 0a70,10 0,1 0,-140 0z"/>
    <path fill="#FF4081" d="M130.015,57.384L178.401,9.637l-0.735,67.973z"/>
    <path fill="#FA1764" d="M130.015,57.384L178.401,9.637l-24.747,57.781z"/>
    <path fill="#50E3C2" d="M174.316,4.393a5.614,5.614 68,1 0,10.335 4.387a5.614,5.614 68,1 0,-10.335 -4.387z"/>
    <path fill="#FF4081" d="M54.124,30l4.123,8.247L50,38.247zM103.698,38.46l3.668,-8.46 5.3,6.318zM43.171,119l4.124,8.247h-8.247z"/>
    <path fill="#BBDEFB" d="M0,121.436a3.436,3.436 0,1 0,6.872 0a3.436,3.436 0,1 0,-6.872 0z"/>
    <path fill="#BBDEFB" d="M39.484,60.436m-3.436,0a3.436,3.436 0,1 1,6.872 0a3.436,3.436 0,1 1,-6.872 0"/>
    <path fill="#50E3C2" d="M28.116,193l1.537,2.279 -9.116,6.15 -1.538,-2.28z"/>
    <path fill="#FF4081" d="M242.15,63.087l3.668,-8.46 5.301,6.318zM253.318,129.267l-8.318,3.98 0.144,-8.247z"/>
    <path fill="#BBDEFB" d="M217,94.436a3.436,3.436 0,1 0,6.872 0a3.436,3.436 0,1 0,-6.872 0z"/>
    <path fill="#50E3C2" d="M191,47h2.749v10.997L191,57.997zM253,93.137l1.73,-2.137 8.546,6.921 -1.73,2.136zM9,75.137L10.73,73l8.546,6.921 -1.73,2.136zM214,152.137l1.73,-2.137 8.546,6.921 -1.73,2.136z"/>
    <path fill="#BBDEFB" d="M207,193.436a3.436,3.436 0,1 0,6.872 0a3.436,3.436 0,1 0,-6.872 0z"/>
    <!--106,150-->
    <path fill="#00000000"
        d="M108,156 C114,161,122,164,131,164 L131,164 C139,164,146,161,152,157"
        stroke="#FFF" stroke-linecap="round"
        stroke-linejoin="round" stroke-width="3"/>
</svg>
