<svg height="200" width="200" viewBox="0 0 44 46" xmlns="http://www.w3.org/2000/svg"><path fill="#FFF" d="M19.77 28.22c.34.42 5.43.27 5.59 0 .17-.27-.08-3.38 1.15-4.74 1.58-1.73 3.1-3.21 3.1-5.49 0-3.68-3.2-6.66-7.14-6.66-3.94 0-7.14 2.98-7.14 6.66 0 2.35 1.66 3.79 3.28 5.61 1.15 1.29.82 4.2 1.16 4.62z" stroke="#00000000"/><path fill="#00000000" d="M19.47 19.39h6.01m-3.01 0v7.01" stroke="#FFEB3B" stroke-linecap="round"/><path fill="#00000000" d="M20.22 29.91h3.75m-3.75 1.4h3.75m-3.75 1.4h3.75" stroke="#FFF" stroke-linecap="round"/></svg>