<svg height="24"
     width="24" viewBox="0 0 44 46" xmlns="http://www.w3.org/2000/svg">
    <path fill="#FFFFFF"
        d="M20.51,11.59C21.33,10.16 22.67,10.17 23.49,11.59L33.51,29.02C34.33,30.45 33.66,31.61 31.99,31.61L12.01,31.61C10.35,31.61 9.67,30.44 10.49,29.02L20.51,11.59Z"
        stroke="#00000000" stroke-width="1"/>
    <path fill="#E7423B"
        d="M22.65,24.91L21.24,24.91L21.04,19L22.85,19L22.65,24.91ZM21.94,25.84C22.23,25.84 22.46,25.92 22.63,26.09C22.81,26.26 22.89,26.47 22.89,26.73C22.89,26.99 22.81,27.21 22.63,27.37C22.46,27.54 22.23,27.63 21.94,27.63C21.66,27.63 21.43,27.54 21.26,27.37C21.09,27.21 21,26.99 21,26.73C21,26.48 21.09,26.26 21.26,26.09C21.43,25.92 21.66,25.84 21.94,25.84Z"
        stroke="#00000000" stroke-width="1"/>
</svg>
