<svg height="24" 
     width="24" viewBox="0 0 32 32" xmlns="http://www.w3.org/2000/svg">
    <path fill="#2196F3"
        d="M16,16m-16,0a16,16 0,1 1,32 0a16,16 0,1 1,-32 0"
        stroke="#00000000" stroke-width="1"/>
    <path fill="#FFFFFF"
        d="M27.93,5.33C27.48,4.84 27.01,4.37 26.5,3.92C25.99,3.48 25.45,3.07 24.91,2.71L4.07,26.67C4.52,27.16 4.99,27.63 5.5,28.08C6.01,28.52 6.55,28.93 7.09,29.29L27.93,5.33Z"
        stroke="#00000000" stroke-width="1"/>
    <path fill="#FFFFFF"
        d="M26.67,27.93C27.16,27.48 27.63,27.01 28.08,26.5C28.52,25.99 28.93,25.45 29.29,24.91L5.33,4.07C4.84,4.52 4.37,4.99 3.92,5.5C3.48,6.01 3.07,6.55 2.71,7.09L26.67,27.93Z"
        stroke="#00000000" stroke-width="1"/>
    <path fill="#F3625B"
        d="M27.51,26.92C27.74,26.68 27.96,26.43 28.17,26.17C28.39,25.91 28.6,25.65 28.79,25.39L4.33,4.86C4.1,5.1 3.88,5.34 3.66,5.6C3.45,5.86 3.24,6.12 3.04,6.39L27.51,26.92Z"
        stroke="#00000000" stroke-width="1"/>
    <path fill="#F3625B"
        d="M5.98,28.42C5.72,28.22 5.46,28 5.21,27.78C4.96,27.55 4.72,27.32 4.49,27.09L25.86,3.35C26.12,3.56 26.37,3.77 26.62,4C26.87,4.22 27.11,4.45 27.35,4.69L5.98,28.42Z"
        stroke="#00000000" stroke-width="1"/>
    <path fill="#F3625B"
        d="M31.88,18C31.96,17.34 32,16.68 32,16C32,15.32 31.96,14.66 31.88,14L0.12,14C0.04,14.66 0,15.32 0,16C0,16.68 0.04,17.34 0.12,18L31.88,18Z"
        stroke="#00000000" stroke-width="1"/>
    <path fill="#F3625B"
        d="M14,31.88C14.66,31.96 15.32,32 16,32C16.68,32 17.34,31.96 18,31.88L18,0.12C17.34,0.04 16.68,0 16,0C15.32,0 14.66,0.04 14,0.12L14,31.88Z"
        stroke="#00000000" stroke-width="1"/>
    <path fill-opacity="0.2" fill="#212121"
        d="M16,32C24.84,32 32,24.84 32,16C32,7.16 24.84,0 16,0L16,32Z"
        stroke-opacity="0.2" stroke="#00000000" stroke-width="1"/>
</svg>
