<svg height="24" 
     width="24" viewBox="0 0 32 32" xmlns="http://www.w3.org/2000/svg">
    <path fill="#F4625B"
        d="M0,16a16,16 0,1 0,32 0a16,16 0,1 0,-32 0z"
        stroke="#00000000" stroke-width="1"/>
    <path fill-opacity="0.2" fill="#000000"
        d="M16,32L16,32C24.84,32 32,24.84 32,16C32,7.16 24.84,0 16,0"
        stroke-opacity="0.2" stroke="#00000000" stroke-width="1"/>
    <path fill="#FFFFFF"
        d="M15.47,15.75C16.94,16.45 15.47,15.89 15.47,14.35C15.47,12.8 17.51,13.32 17.9,11.08C18.16,9.54 16.95,8.89 17.41,7.85C17.8,7.24 17.58,7.49 18.16,7.03C15.47,6.73 13,8.82 13,11.4C13,13.98 14.14,15.12 15.47,15.75Z"
        stroke="#00000000" stroke-width="1"/>
    <path fill="#FFFFFF"
        d="M16.49,16.51C16.62,18.13 16.37,16.58 17.71,15.81C19.04,15.04 19.62,17.06 21.75,16.28C23.21,15.74 23.18,14.36 24.31,14.25C25.03,14.28 24.7,14.21 25.39,14.48C24.3,12 21.26,10.91 19.03,12.2C16.79,13.49 16.37,15.05 16.49,16.51Z"
        stroke="#00000000" stroke-width="1"/>
    <path fill="#FFFFFF"
        d="M16.83,16.89C15.43,17.44 16.73,16.8 17.89,17.81C19.06,18.82 17.45,19.89 18.91,21.63C19.91,22.82 21.13,22.42 21.64,23.42C21.86,24.08 21.81,23.76 21.81,24.47C23.64,22.81 23.54,19.74 21.59,18.05C19.64,16.36 18.1,16.39 16.83,16.89Z"
        stroke="#00000000" stroke-width="1"/>
    <path fill="#FFFFFF"
        d="M16.42,17.86C15.67,16.42 16.5,17.75 15.57,18.98C14.64,20.21 13.32,18.57 11.67,20.13C10.53,21.2 11.1,22.45 10.11,23C9.43,23.25 9.76,23.18 9.02,23.2C10.99,25.06 14.22,24.88 15.77,22.82C17.32,20.76 17.1,19.16 16.42,17.86Z"
        stroke="#00000000" stroke-width="1"/>
    <path fill="#FFFFFF"
        d="M16.02,17.9C17.24,16.82 16.15,17.95 14.73,17.35C13.31,16.75 14.58,15.07 12.67,13.84C11.36,12.99 10.28,13.85 9.5,13.02C9.1,12.42 9.24,12.73 9.04,12.01C7.72,14.38 8.67,17.46 11.05,18.47C13.43,19.48 14.92,18.87 16.02,17.9Z"
        stroke="#00000000" stroke-width="1"/>
</svg>
