<svg height="24" 
     width="24" viewBox="0 0 139 136" xmlns="http://www.w3.org/2000/svg">
    <path fill="#2196F3"
        d="M72.24,132.76C108.73,132.76 138.31,103.04 138.31,66.38C138.31,29.72 108.73,0 72.24,0C35.75,0 6.17,29.72 6.17,66.38C6.17,75.86 8.14,84.88 11.71,93.04C15.05,100.68 11.71,123.61 0,134.07C5.8,139.88 37.52,123.42 44.65,126.72C53.05,130.6 62.39,132.76 72.24,132.76Z"
        stroke="#00000000" stroke-width="1"/>
    <path fill="#1976D2"
        d="M72.47,132.18C108.89,132.18 138.41,102.59 138.41,66.09C138.41,29.59 108.89,0 72.47,0"
        stroke="#00000000" stroke-width="1"/>
    <path fill="#FFFFFF"
        d="M42.77,55.27a30.12,30.26 0,1 0,60.24 0a30.12,30.26 0,1 0,-60.24 0z"
        stroke="#00000000" stroke-width="1"/>
    <path fill="#2196F3"
        d="M55.84,55.89a16.52,16.6 0,1 0,33.04 0a16.52,16.6 0,1 0,-33.04 0z"
        stroke="#00000000" stroke-width="1"/>
    <path fill="#FFFFFF"
        d="M61.78,51.11a5.83,5.86 0,1 0,11.66 0a5.83,5.86 0,1 0,-11.66 0z"
        stroke="#00000000" stroke-width="1"/>
    <path fill="#00000000"
        d="M49.9,101.22C56.42,105.91 64.42,108.67 73.05,108.67L73.05,108.67C80.93,108.67 88.28,106.37 94.46,102.4"
        stroke="#FFFFFF" stroke-linecap="round"
        stroke-linejoin="round" stroke-width="3"/>
</svg>
