<svg height="24" 
     width="24" viewBox="0 0 117 114" xmlns="http://www.w3.org/2000/svg">
    <path fill="#FFFFFF"
        d="M60.8,111.49C91.52,111.49 116.42,86.53 116.42,55.75C116.42,24.96 91.52,0 60.8,0C30.09,0 5.19,24.96 5.19,55.75C5.19,63.71 6.86,71.28 9.86,78.13C12.67,84.55 9.86,103.81 0,112.59C4.89,117.47 31.58,103.65 37.58,106.41C44.65,109.67 52.52,111.49 60.8,111.49Z"
        stroke="#00000000" stroke-width="1"/>
    <path fill="#DCEFFD"
        d="M61,111C91.65,111 116.5,86.15 116.5,55.5C116.5,24.85 91.65,0 61,0"
        stroke="#00000000" stroke-width="1"/>
    <path fill="#D8D8D8"
        d="M36,46.41a25.35,25.41 0,1 0,50.71 0a25.35,25.41 0,1 0,-50.71 0z"
        stroke="#00000000" stroke-width="1"/>
    <path fill="#2196F3"
        d="M47,46.94a13.9,13.94 0,1 0,27.81 0a13.9,13.94 0,1 0,-27.81 0z"
        stroke="#00000000" stroke-width="1"/>
    <path fill="#FFFFFF"
        d="M52,42.92a4.91,4.92 0,1 0,9.81 0a4.91,4.92 0,1 0,-9.81 0z"
        stroke="#00000000" stroke-width="1"/>
    <path fill="#00000000"
        d="M42,85C47.49,88.94 54.22,91.26 61.49,91.26L61.49,91.26C68.12,91.26 74.31,89.33 79.51,86"
        stroke="#2196F3" stroke-linecap="round"
        stroke-linejoin="round" stroke-width="3"/>
</svg>
