<svg xmlns="http://www.w3.org/2000/svg" width="256" height="256" viewBox='0 0 256 256'><path svg-effect="non-scaling-stroke" d="M 80 55 C 80 55, 73 23, 73 23 C 73 23, 82 13, 102 14 C 102 14, 112 8, 136 8 C 136 8, 146 2, 152 3 C 152 3, 160 2, 173 19 C 173 19, 182 22, 183 26 C 183 26, 177 56, 176 56 z" fill="#f8e7d5" stroke="black" stroke-width="3" stroke-linecap="round"/><path svg-effect="non-scaling-stroke" d="M 73 23 C 73 23, 116 172, 85 224 C 85 224, 76 232, 92 240 C 92 240, 117 254, 161 239 C 161 239, 172 237, 161 217 C 161 217, 143 182, 183 27 C 183 27, 141 18, 73 23" fill="#ffffff88" stroke="black" stroke-width="3" stroke-linecap="round"/><path svg-effect="non-scaling-stroke" d="M 81 56 C 81 56, 104 150, 92 203 C 92 203, 119 213, 158 204 C 158 204, 160 114, 176 57 C 176 57, 127 56, 81 56" fill="#f68503" stroke="black" stroke-width="3" stroke-linecap="round"/></svg>