<svg height="24" 
     width="24" viewBox="0 0 43 42" xmlns="http://www.w3.org/2000/svg">
    <path fill-opacity="0.15" fill="#000000"
        d="M22.35,41C33.64,41 42.79,31.82 42.79,20.5C42.79,10.65 35.86,2.42 26.62,0.45C25.24,0.15 23.81,0 22.35,0C11.06,0 1.91,9.18 1.91,20.5C1.91,23.43 2.52,26.21 3.62,28.73C4.66,31.09 3.62,38.17 -0,41.4C1.8,43.2 11.61,38.12 13.81,39.13C16.41,40.33 19.3,41 22.35,41Z"
        stroke-opacity="0.15" stroke="#00000000" stroke-width="1"/>
    <path fill-opacity="0.15" fill="#000000"
        d="M22.42,40.82C33.68,40.82 42.82,31.68 42.82,20.41C42.82,9.14 33.68,0 22.42,0L22.42,40.82Z"
        stroke-opacity="0.15" stroke="#00000000" stroke-width="1"/>
</svg>
