<svg width="256" height="256" viewBox='0 0 256 256'  xmlns="http://www.w3.org/2000/svg"><path svg-effect="non-scaling-stroke" d="M 28 176 C 28 176, 31 191, 38 197 C 38 197, 47 211, 60 197 C 60 197, 58 170, 44 168 C 44 168, 33 164, 28 176" fill="#7f941f" stroke="black" stroke-width="3" stroke-linecap="round" /><path svg-effect="non-scaling-stroke" d="M 61 196 C 61 196, 79 196, 89 209 C 89 209, 108 231, 166 196 C 166 196, 183 185, 200 174 C 200 174, 143 165, 92 177 C 92 177, 69 185, 58 180 C 58 180, 62 196, 61 196" fill="#f5e65a" stroke="black" stroke-width="3" stroke-linecap="round" /><path svg-effect="non-scaling-stroke" d="M 244 182 C 244 182, 234 188, 197 173 C 197 173, 125 169, 89 177 C 89 177, 58 182, 60 182 C 60 182, 54 175, 54 175 C 54 175, 67 166, 71 154 C 71 154, 101 105, 212 133 C 212 133, 250 147, 250 162 C 250 162, 254 180, 244 182" fill="#f5e65a" stroke="black" stroke-width="3" stroke-linecap="round" /><path svg-effect="non-scaling-stroke" d="M 227 124 C 227 124, 221 82, 124 80 C 124 80, 34 83, 48 143 C 48 143, 54 158, 48 167 C 48 167, 54 175, 54 175 C 54 175, 65 168, 78 143 C 78 143, 105 112, 193 127 C 193 127, 227 138, 227 138 C 227 138, 235 136, 227 124" fill="#f5e65a" stroke="black" stroke-width="3" stroke-linecap="round" /><path svg-effect="non-scaling-stroke" d="M 178 69 C 178 69, 148 25, 58 64 C 58 64, 2 99, 34 150 C 34 150, 40 159, 36 166 C 36 166, 49 170, 49 170 C 49 170, 52 162, 48 147 C 48 147, 36 106, 75 90 C 75 90, 116 68, 186 89 C 186 89, 193 77, 178 69" fill="#f5e65a" stroke="black" stroke-width="3" stroke-linecap="round" /></svg>