<svg xmlns="http://www.w3.org/2000/svg" width="256" height="256" viewBox='0 0 256 256'><path svg-effect="non-scaling-stroke" d="M 63 66 C 63 66, 80 27, 159 28 C 159 28, 230 24, 253 64 C 253 64, 254 199, 166 209 C 166 209, 74 225, 64 67 C 64 67, 63 66, 63 66" fill="#e0e1db" stroke="black" stroke-width="3" stroke-linecap="round"/><path svg-effect="non-scaling-stroke" d="M 82 89 C 82 89, 147 29, 237 90 C 237 90, 153 141, 82 89" fill="#402009" stroke="black" stroke-width="3" stroke-linecap="round"/><path svg-effect="non-scaling-stroke" d="M 63 66 C 63 66, 66 103, 157 113 C 157 113, 246 106, 253 64 C 253 64, 254 207, 158 209 C 158 209, 67 214, 63 66" fill="#e0e1db" stroke="black" stroke-width="3" stroke-linecap="round"/><path svg-effect="non-scaling-stroke" d="M 67 98 C 67 98, 27 66, 13 99 C 13 99, 2 127, 36 149 C 36 149, 90 185, 97 179 C 97 179, 96 152, 75 162 C 75 162, 3 125, 29 105 C 29 105, 37 92, 58 110 C 58 110, 64 124, 73 118 C 73 118, 77 106, 67 98" fill="#e0e1db" stroke="black" stroke-width="3" stroke-linecap="round"/><path svg-effect="non-scaling-stroke" d="M 121 209 C 121 209, 111 191, 94 203 C 94 203, 109 206, 109 206 C 109 206, 92 204, 92 204 C 92 204, 100 218, 121 209" fill="#402009" stroke="black" stroke-width="3" stroke-linecap="round"/><path svg-effect="non-scaling-stroke" d="M 200 209 C 200 209, 207 192, 218 200 C 218 200, 209 205, 209 205 C 209 205, 217 200, 217 200 C 217 200, 224 210, 200 209" fill="#402009" stroke="black" stroke-width="3" stroke-linecap="round"/><path svg-effect="non-scaling-stroke" d="M 157 228 C 157 228, 156 214, 140 222 C 140 222, 151 225, 150 225 C 150 225, 140 222, 151 225 C 151 225, 142 223, 140 222 C 140 222, 129 232, 157 228" fill="#402009" stroke="black" stroke-width="3" stroke-linecap="round"/></svg>