<svg xmlns="http://www.w3.org/2000/svg" width="256" height="256" viewBox='0 0 256 256'><path svg-effect="non-scaling-stroke" d="M 105 9 C 105 9, 55 108, 135 123 C 135 123, 212 122, 165 9 C 165 9, 131 2, 105 9" fill="#ffffff88" stroke="black" stroke-width="3" stroke-linecap="round"/><path svg-effect="non-scaling-stroke" d="M 105 9 C 105 9, 131 14, 165 9 C 165 9, 131 14, 105 9" fill="#ffffff" stroke="black" stroke-width="3" stroke-linecap="round"/><path svg-effect="non-scaling-stroke" d="M 89 72 C 89 72, 181 71, 181 71 C 181 71, 185 120, 135 124 C 135 124, 90 120, 89 72" fill="#730101" stroke="black" stroke-width="3" stroke-linecap="round"/><path svg-effect="non-scaling-stroke" d="M 128 123 C 128 123, 134 127, 132 179 C 132 179, 124 241, 124 241 C 124 241, 162 241, 172 236 C 172 236, 140 229, 140 229 C 140 229, 135 141, 141 124 C 141 124, 136 125, 128 123" fill="#ffffff" stroke="black" stroke-width="3" stroke-linecap="round"/><path svg-effect="non-scaling-stroke" d="M 123 199 C 123 199, 108 207, 117 226 C 117 226, 123 236, 130 233 C 130 233, 144 229, 140 215 C 140 215, 141 197, 123 199" fill="#2b3978" stroke="black" stroke-width="3" stroke-linecap="round"/><path svg-effect="non-scaling-stroke" d="M 102 236 C 102 236, 107 252, 118 247 C 118 247, 129 246, 127 228 C 127 228, 119 206, 107 215 C 107 215, 99 219, 102 236" fill="#2b3978" stroke="black" stroke-width="3" stroke-linecap="round"/><path svg-effect="non-scaling-stroke" d="M 122 189 C 122 189, 115 178, 99 190 C 99 190, 85 198, 91 206 C 91 206, 103 218, 113 213 C 113 213, 134 209, 122 189" fill="#2b3978" stroke="black" stroke-width="3" stroke-linecap="round"/><path svg-effect="non-scaling-stroke" d="M 90 249 C 90 249, 103 249, 106 232 C 106 232, 109 210, 99 212 C 99 212, 86 209, 79 226 C 79 226, 71 248, 90 249" fill="#2b3978" stroke="black" stroke-width="3" stroke-linecap="round"/><path svg-effect="non-scaling-stroke" d="M 94 202 C 94 202, 94 192, 75 190 C 75 190, 58 192, 59 202 C 59 202, 59 215, 75 214 C 75 214, 95 218, 94 202" fill="#2b3978" stroke="black" stroke-width="3" stroke-linecap="round"/><path svg-effect="non-scaling-stroke" d="M 87 215 C 87 215, 83 208, 63 214 C 63 214, 44 222, 53 234 C 53 234, 57 243, 77 234 C 77 234, 85 232, 87 215" fill="#2b3978" stroke="black" stroke-width="3" stroke-linecap="round"/><path svg-effect="non-scaling-stroke" d="M 80 229 C 80 229, 67 230, 63 241 C 63 241, 61 254, 67 253 C 67 253, 77 253, 80 248 C 80 248, 87 242, 80 229" fill="#2b3978" stroke="black" stroke-width="3" stroke-linecap="round"/></svg>
