<svg height="200" width="200" viewBox="0 0 101 91" xmlns="http://www.w3.org/2000/svg"><path fill="#BBDEFB" d="M15.08 90.17c-3.77 0-6.83-3.06-6.83-6.84 0-3.33 2.38-6.11 5.54-6.71 1.35-3.69 4.89-6.33 9.05-6.33 4.12 0 7.63 2.58 9.01 6.21 3.77 0 6.83 3.06 6.83 6.83a6.84 6.84 0 0 1-6.21 6.81v.03H15.08z"/><path fill="#BBDEFB" d="M15.08 90.17c-3.77 0-6.83-3.06-6.83-6.84 0-3.33 2.38-6.11 5.54-6.71 1.35-3.69 4.89-6.33 9.05-6.33 4.12 0 7.63 2.58 9.01 6.21 3.77 0 6.83 3.06 6.83 6.83a6.84 6.84 0 0 1-6.21 6.81v.03H15.08zm49.78-64.62a8.782 8.782 0 1 1-1.65-17.41C64.94 3.39 69.49 0 74.84 0c5.29 0 9.8 3.32 11.58 7.99 4.85 0 8.78 3.93 8.78 8.78 0 4.58-3.51 8.35-7.98 8.75v.03H64.86z"/><path d="M89.77 75H55.71m-4.35 0h-4.35m30.44 6H43.39m4.35-73H13.68m-5.8 0H1.36m36.96 6H4.26" stroke="#2196F3" stroke-linecap="round" stroke-linejoin="round" stroke-width="2"/><path fill="#2196F3" d="M19.84 41.3h65.22S101 43.79 101 47.83c0 4.26-15.94 7.24-15.94 7.24H31.43S12.15 52.29 9.7 47.1c0 .09-.28-4.53 0-5.07.51-.33 10.14-.73 10.14-.73z"/><path fill="#BBDEFB" d="M34.16 29.71c-1.1 0-1.36.64-.59 1.41L43.75 41.3h18.12L47.54 30.89c-.89-.65-2.52-1.18-3.61-1.18h-9.77zm29.77 21.6c1.11.09 1.32.74.48 1.46l-15.96 13.6c-.84.72-2.42 1.3-3.51 1.3H31.25c-1.1 0-1.36-.63-.57-1.42l14.84-14.89c.78-.79 2.3-1.35 3.41-1.26l15 1.21zM9.7 42.03l-4.95-10.5c-.47-1.01.05-1.82 1.14-1.82h4.71c1.1 0 2.64.61 3.46 1.38L24.91 41.3l-15.21.73zm71.29 2.9h1.62a1 1 0 0 1 1 1v1.62a1 1 0 0 1-1 1h-1.62a1 1 0 0 1-1-1v-1.62a1 1 0 0 1 1-1zm-5.08 0h1.63a1 1 0 0 1 1 1v1.62a1 1 0 0 1-1 1h-1.63a1 1 0 0 1-1-1v-1.62a1 1 0 0 1 1-1zm-5.07 0h1.62a1 1 0 0 1 1 1v1.62a1 1 0 0 1-1 1h-1.62a1 1 0 0 1-1-1v-1.62a1 1 0 0 1 1-1zm-5.07 0h1.62a1 1 0 0 1 1 1v1.62a1 1 0 0 1-1 1h-1.62a1 1 0 0 1-1-1v-1.62a1 1 0 0 1 1-1zm-5.07 0h1.62a1 1 0 0 1 1 1v1.62a1 1 0 0 1-1 1H60.7a1 1 0 0 1-1-1v-1.62a1 1 0 0 1 1-1zm-5.08 0h1.63a1 1 0 0 1 1 1v1.62a1 1 0 0 1-1 1h-1.63a1 1 0 0 1-1-1v-1.62a1 1 0 0 1 1-1zm-5.07 0h1.62a1 1 0 0 1 1 1v1.62a1 1 0 0 1-1 1h-1.62a1 1 0 0 1-1-1v-1.62a1 1 0 0 1 1-1zm-5.07 0h1.62a1 1 0 0 1 1 1v1.62a1 1 0 0 1-1 1h-1.62a1 1 0 0 1-1-1v-1.62a1 1 0 0 1 1-1zm-5.07 0h1.62a1 1 0 0 1 1 1v1.62a1 1 0 0 1-1 1h-1.62a1 1 0 0 1-1-1v-1.62a1 1 0 0 1 1-1zm-5.08 0h1.63a1 1 0 0 1 1 1v1.62a1 1 0 0 1-1 1h-1.63a1 1 0 0 1-1-1v-1.62a1 1 0 0 1 1-1zm-5.07 0h1.62a1 1 0 0 1 1 1v1.62a1 1 0 0 1-1 1h-1.62a1 1 0 0 1-1-1v-1.62a1 1 0 0 1 1-1zm-5.07 0h1.62a1 1 0 0 1 1 1v1.62a1 1 0 0 1-1 1h-1.62a1 1 0 0 1-1-1v-1.62a1 1 0 0 1 1-1z"/></svg>