<svg height="200" width="200" viewBox="0 0 96 81" xmlns="http://www.w3.org/2000/svg"><path fill="#2196F3" d="M0 47h81.01C87.63 47 93 52.37 93 59v12H0V47z"/><path fill="#BBDEFB" d="M84.22 75h8.1v3c0 1.66-1.34 3-3 3h-2.11a3 3 0 0 1-2.99-3v-3zm-11.79 0h8.1v3c0 1.66-1.33 3-2.99 3h-2.11c-1.66 0-3-1.35-3-3v-3zm-11.78 0h8.1v3c0 1.66-1.34 3-2.99 3h-2.12a3 3 0 0 1-2.99-3v-3zm-11.78 0h8.1v3c0 1.66-1.34 3-2.99 3h-2.12a3 3 0 0 1-2.99-3v-3zm-11.78 0h8.1v3c0 1.66-1.34 3-3 3h-2.11a3 3 0 0 1-2.99-3v-3zM25.3 75h8.1v3c0 1.66-1.33 3-2.99 3H28.3c-1.66 0-3-1.35-3-3v-3zm-11.78 0h8.1v3c0 1.66-1.34 3-2.99 3h-2.12a3 3 0 0 1-2.99-3v-3zM1.74 75h8.1v3c0 1.66-1.34 3-3 3H4.73a3 3 0 0 1-2.99-3v-3z"/><path d="M8.79 34.34L32.37 5.48c1.55-1.89 4.77-3.42 7.21-3.42h15.54c2.44 0 5.65 1.53 7.2 3.44l28.64 35.39" stroke="#2196F3" stroke-linecap="round" stroke-width="2" fill="none"/><path fill="#2196F3" d="M93 72H0v3h93z"/><path fill="#BBDEFB" d="M72.01 20.2c-3.83 0-6.94-3.11-6.94-6.94 0-3.39 2.43-6.21 5.64-6.83a9.785 9.785 0 1 1 18.34-.12h.01c3.83 0 6.94 3.11 6.94 6.95 0 3.62-2.77 6.59-6.31 6.91v.03H72.01zm-47.03-4.31h.01m.63 13.85v.03m-14.66 0H7.94C4.11 29.77 1 26.66 1 22.83c0-3.39 2.43-6.21 5.64-6.82 1.37-3.76 4.97-6.44 9.19-6.44 3.42 0 6.43 1.76 8.18 4.41"/><path d="M15.87 25.61l6.73-3.05c.87-.39 2.26-.33 3.09.14l4.81 2.71c.83.47 2.18.44 3-.05l4.3-2.61c.82-.5 2.15-.5 2.98.01l4.2 2.59c.82.5 2.16.53 3 .05l4.73-2.69c.83-.48 2.16-.46 2.99.06l4.1 2.57c.82.51 2.16.53 3 .05l4.62-2.67c.84-.49 2.25-.59 3.14-.25l8.1 3.14" stroke="#2196F3" stroke-width="2" fill="none"/><path fill="#BBDEFB" d="M19.73 54h10.31v10.31H19.73zM5 54h10.31v10.31H5zm29.46 0h10.31v10.31H34.46zm14.73 0H59.5v10.31H49.19zm14.72 0h10.31v10.31H63.91zm28.18 0c.58 1.38.91 2.9.91 4.5V64H81a2 2 0 0 1-2-2v-6c0-1.1.9-2 2.01-2h11.08z"/></svg>