<svg height="200" width="200" viewBox="0 0 46 46" xmlns="http://www.w3.org/2000/svg"><path d="M1 23a22 22 0 1 0 44 0 22 22 0 1 0-44 0z" stroke="#2196F3" stroke-width="2" fill="none"/><path fill="#2196F3" d="M34.68 21.01c-1.33-.38-2.56-1.02-3.83-1.55-.85-.35-1.69-.72-2.57-1.03.75 1.01.78 2.16.81 3.3.03 1.01.07 2.01.07 3.01.01.82-.19.96-.97.78-.13-.03-.26-.08-.45-.14-.05.58-.09 1.13-.13 1.7.84.32.76 1.14.84 1.82.07.48-.04.99-.09 1.49-.07.56-.29.97-.87 1.17-.14.05-.29.34-.3.52-.02 1.29-.01 2.57-.01 3.86 0 .14.05.33-.02.41-.19.24-.43.44-.65.65-.22-.26-.55-.48-.62-.78-.07-.33.1-.71.15-1.08.01-.1-.04-.21-.06-.31-.02-.15-.11-.35-.05-.43.16-.21.16-.33.01-.57-.09-.13.06-.42.07-.51-.06-.47-.14-.83-.14-1.19 0-.32-.05-.54-.39-.63-.48-.11-.75-.46-.77-.94-.03-.87-.03-1.75.03-2.62.02-.27.29-.55.51-.74.28-.24.23-.4-.02-.55-1.65-.98-3.29-1.97-4.96-2.91-1.4-.79-2.85-1.52-4.28-2.29-.32-.18-.67-.37-.93-.63-1.19-1.2-2.69-1.39-4.26-1.42-.13 0-.27 0-.41-.01V13s6.5.02 9.75.04c2.13 0 4.24.12 6.22 1.06 1.86.88 3.74 1.7 5.56 2.64 1.72.9 3.39 1.92 5.08 2.89 0 .16.18 2.1-2.32 1.38zm-8.51 2.58c.04-.14.12-.3.12-.46-.03-.44-.15-.88-.12-1.31.08-1.35-.77-2.13-1.66-2.88-.49-.41-1.1-.34-1.59.15-.46.47-.52.95-.06 1.49.44.53.94 1.02 1.46 1.48.57.51 1.18.98 1.85 1.53zm.43.88c-.15.59-.32 1.2-.43 1.82-.04.18.05.42.17.57.05.05.4-.02.47-.14.3-.45.1-1.87-.21-2.25zm-.94 3.34c.15.5.64.66 1.3.49.17-.05.31-.22.46-.33-.03-.07-.06-.13-.09-.2-.55.6-1.1.6-1.67.04zM8 13.99c0-.55.44-.99.99-.99s1 .44 1 .99v5.11c0 .55-.44.99-1 .99-.55 0-.99-.44-.99-.99v-5.11z"/></svg>