<svg height="24" 
     width="24" viewBox="0 0 64 64" xmlns="http://www.w3.org/2000/svg">
    <path fill="#BBDEFB"
        d="M32,32m-32,0a32,32 0,1 1,64 0a32,32 0,1 1,-64 0"
        stroke="#00000000" stroke-width="1"/>
    <path fill="#2196F3"
        d="M4.92,32a27.08,27.08 0,1 0,54.15 0a27.08,27.08 0,1 0,-54.15 0z"
        stroke="#00000000" stroke-width="1"/>
    <path fill="#1976D2"
        d="M9.85,32a22.15,22.15 0,1 0,44.31 0a22.15,22.15 0,1 0,-44.31 0z"
        stroke="#00000000" stroke-width="1"/>
    <path fill="#00000000"
        d="M42.65,32.01C43.62,32.55 43.62,33.42 42.65,33.95L26.57,42.79C25.6,43.32 24.82,42.86 24.82,41.75L24.82,24.21C24.82,23.1 25.61,22.64 26.57,23.17L42.65,32.01Z"
        stroke="#FFFFFF" stroke-width="2"/>
</svg>
