<svg width="256" height="256" viewBox='0 0 256 256'  xmlns="http://www.w3.org/2000/svg"><circle cx="23" cy="23" r="21" fill="#2196F3" stroke="black" stroke-width="3" svg-effect="non-scaling-stroke"/><circle cx="75" cy="23" r="21" fill="#2196F3" stroke="black" stroke-width="3" svg-effect="non-scaling-stroke"/><circle cx="128" cy="23" r="21" fill="#2196F3" stroke="black" stroke-width="3" svg-effect="non-scaling-stroke"/><circle cx="180" cy="23" r="21" fill="#2196F3" stroke="black" stroke-width="3" svg-effect="non-scaling-stroke"/><circle cx="233" cy="23" r="21" fill="#2196F3" stroke="black" stroke-width="3" svg-effect="non-scaling-stroke"/><circle cx="23" cy="75" r="21" fill="#2196F3" stroke="black" stroke-width="3" svg-effect="non-scaling-stroke"/><circle cx="75" cy="75" r="21" fill="#2196F3" stroke="black" stroke-width="3" svg-effect="non-scaling-stroke"/><circle cx="128" cy="75" r="21" fill="#2196F3" stroke="black" stroke-width="3" svg-effect="non-scaling-stroke"/><circle cx="180" cy="75" r="21" fill="#2196F3" stroke="black" stroke-width="3" svg-effect="non-scaling-stroke"/><circle cx="233" cy="75" r="21" fill="#2196F3" stroke="black" stroke-width="3" svg-effect="non-scaling-stroke"/><circle cx="23" cy="128" r="21" fill="#2196F3" stroke="black" stroke-width="3" svg-effect="non-scaling-stroke"/><circle cx="75" cy="128" r="21" fill="#2196F3" stroke="black" stroke-width="3" svg-effect="non-scaling-stroke"/><circle cx="128" cy="128" r="21" fill="#2196F3" stroke="black" stroke-width="3" svg-effect="non-scaling-stroke"/><circle cx="180" cy="128" r="21" fill="#2196F3" stroke="black" stroke-width="3" svg-effect="non-scaling-stroke"/><circle cx="233" cy="128" r="21" fill="#2196F3" stroke="black" stroke-width="3" svg-effect="non-scaling-stroke"/><circle cx="23" cy="180" r="21" fill="#2196F3" stroke="black" stroke-width="3" svg-effect="non-scaling-stroke"/><circle cx="75" cy="180" r="21" fill="#2196F3" stroke="black" stroke-width="3" svg-effect="non-scaling-stroke"/><circle cx="128" cy="180" r="21" fill="#2196F3" stroke="black" stroke-width="3" svg-effect="non-scaling-stroke"/><circle cx="180" cy="180" r="21" fill="#2196F3" stroke="black" stroke-width="3" svg-effect="non-scaling-stroke"/><circle cx="233" cy="180" r="21" fill="#2196F3" stroke="black" stroke-width="3" svg-effect="non-scaling-stroke"/><circle cx="23" cy="233" r="21" fill="#2196F3" stroke="black" stroke-width="3" svg-effect="non-scaling-stroke"/><circle cx="75" cy="233" r="21" fill="#2196F3" stroke="black" stroke-width="3" svg-effect="non-scaling-stroke"/><circle cx="128" cy="233" r="21" fill="#2196F3" stroke="black" stroke-width="3" svg-effect="non-scaling-stroke"/><circle cx="180" cy="233" r="21" fill="#2196F3" stroke="black" stroke-width="3" svg-effect="non-scaling-stroke"/><circle cx="233" cy="233" r="21" fill="#2196F3" stroke="black" stroke-width="3" svg-effect="non-scaling-stroke"/></svg>