<svg height="24" 
     width="24" viewBox="0 0 107 86" xmlns="http://www.w3.org/2000/svg">
    <path fill="#2196F3"
        d="M53.57,50.15l0,11.4l3.42,0l0,-11.4z"
        stroke="#00000000" stroke-width="1"/>
    <path fill="#BBDEFB"
        d="M80.86,19.34C77.18,19.34 74.2,16.36 74.2,12.69C74.2,9.45 76.53,6.75 79.61,6.16C80.92,2.57 84.38,0 88.43,0C92.45,0 95.87,2.51 97.21,6.04C97.22,6.04 97.22,6.04 97.22,6.04C100.9,6.04 103.88,9.02 103.88,12.69C103.88,16.16 101.22,19.01 97.82,19.31L97.82,19.34L80.86,19.34Z"
        stroke="#00000000" stroke-width="1"/>
    <path fill="#BBDEFB"
        d="M6.97,39.79C3.29,39.79 0.3,36.81 0.3,33.14C0.3,29.9 2.63,27.19 5.71,26.61C7.03,23.02 10.48,20.45 14.54,20.45C18.55,20.45 21.98,22.96 23.32,26.49C23.32,26.49 23.32,26.49 23.32,26.49C27,26.49 29.98,29.47 29.98,33.14C29.98,36.61 27.32,39.46 23.93,39.76L23.93,39.79L6.97,39.79Z"
        stroke="#00000000" stroke-width="1"/>
    <path fill="#BBDEFB"
        d="M53.57,5.7C53.57,5.7 43.52,15.08 36.47,28.49C29.44,42.85 25.08,54.71 25.08,54.71L53.57,54.71L53.57,5.7Z"
        stroke="#00000000" stroke-width="1"/>
    <path fill="#2196F3"
        d="M53.57,5.7C53.57,5.7 60.51,21.84 66.11,31.91C72.08,42.41 84.34,56.99 84.34,56.99L53.57,56.99L53.57,5.7Z"
        stroke="#00000000" stroke-width="1"/>
    <path fill="#00000000"
        d="M21.2,78.7C21.2,78.7 22.68,84.34 27.93,84.34C33.17,84.34 35.27,78.7 35.27,78.7C35.27,78.7 37.23,84.34 42.51,84.34C47.79,84.34 49.64,78.7 49.64,78.7C49.64,78.7 50.91,84.34 56.66,84.34C62.42,84.34 63.91,78.7 63.91,78.7C63.91,78.7 65.78,84.34 71.12,84.34C76.46,84.34 78.09,78.7 78.09,78.7C78.09,78.7 79.93,84.34 85.2,84.34C90.47,84.34 92.08,78.7 92.08,78.7C92.08,78.7 93.07,84.34 98.94,84.34C104.81,84.34 105.53,79 105.53,78.7"
        stroke="#2196F3" stroke-linecap="round"
        stroke-linejoin="round" stroke-width="2"/>
    <path fill="#2196F3"
        d="M53.41,2.59L53.41,5.77L63.85,4.71C64.73,4.62 64.74,4.43 63.87,4.29L53.41,2.59Z"
        stroke="#00000000" stroke-width="1"/>
    <path fill="#2196F3"
        d="M18.24,61.55L84.92,61.55C88.38,61.55 92.83,63.82 94.87,66.61L100.3,74.09L25.08,74.09L18.24,61.55Z"
        stroke="#00000000" stroke-width="1"/>
    <path fill="#00000000"
        d="M27.71,68.39L80.35,68.39"
        stroke="#BBDEFB" stroke-linecap="round" stroke-width="2"/>
    <path fill="#00000000"
        d="M83.89,68.39L86.01,68.39"
        stroke="#BBDEFB" stroke-linecap="round" stroke-width="2"/>
</svg>
